<svg width="0" height="0" class="hidden">
  <symbol xmlns="http://www.w3.org/2000/svg" viewBox="0 0 24 24" id="pizza">
    <path fill="currentColor" d="M8.51,12.48a1,1,0,1,0,1,1A1,1,0,0,0,8.51,12.48ZM8.51,8a1,1,0,1,0,1,1A1,1,0,0,0,8.51,8ZM12,10a1,1,0,0,0-1,1v1a1,1,0,0,0,2,0V11A1,1,0,0,0,12,10Zm8.5-1.43,0,0a3,3,0,0,0-2.3-.29,2.9,2.9,0,0,0-1.09.56L5.51,2.13a1,1,0,0,0-1,0A1,1,0,0,0,4,3V16.17A2.94,2.94,0,0,0,2,19H2a3,3,0,0,0,2.92,3h.58a18.57,18.57,0,0,0,16.11-9.41A3,3,0,0,0,20.51,8.57ZM6,4.73l9.89,5.71A12.57,12.57,0,0,1,6,16Zm13.87,6.88A16.58,16.58,0,0,1,5,20a1,1,0,0,1-1-1,1,1,0,0,1,.3-.72A1,1,0,0,1,5,18h.51a14.5,14.5,0,0,0,12.62-7.37.9.9,0,0,1,.58-.44,1,1,0,0,1,.75.09h0A1,1,0,0,1,19.88,11.61Z"/>
  </symbol>
  <symbol xmlns="http://www.w3.org/2000/svg" viewBox="0 0 24 24" id="trash">
    <path fill="currentColor" d="M10 18C10.2652 18 10.5196 17.8946 10.7071 17.7071C10.8946 17.5196 11 17.2652 11 17V11C11 10.7348 10.8946 10.4804 10.7071 10.2929C10.5196 10.1054 10.2652 10 10 10C9.73478 10 9.48043 10.1054 9.29289 10.2929C9.10536 10.4804 9 10.7348 9 11V17C9 17.2652 9.10536 17.5196 9.29289 17.7071C9.48043 17.8946 9.73478 18 10 18ZM20 6H16V5C16 4.20435 15.6839 3.44129 15.1213 2.87868C14.5587 2.31607 13.7956 2 13 2H11C10.2044 2 9.44129 2.31607 8.87868 2.87868C8.31607 3.44129 8 4.20435 8 5V6H4C3.73478 6 3.48043 6.10536 3.29289 6.29289C3.10536 6.48043 3 6.73478 3 7C3 7.26522 3.10536 7.51957 3.29289 7.70711C3.48043 7.89464 3.73478 8 4 8H5V19C5 19.7956 5.31607 20.5587 5.87868 21.1213C6.44129 21.6839 7.20435 22 8 22H16C16.7956 22 17.5587 21.6839 18.1213 21.1213C18.6839 20.5587 19 19.7956 19 19V8H20C20.2652 8 20.5196 7.89464 20.7071 7.70711C20.8946 7.51957 21 7.26522 21 7C21 6.73478 20.8946 6.48043 20.7071 6.29289C20.5196 6.10536 20.2652 6 20 6ZM10 5C10 4.73478 10.1054 4.48043 10.2929 4.29289C10.4804 4.10536 10.7348 4 11 4H13C13.2652 4 13.5196 4.10536 13.7071 4.29289C13.8946 4.48043 14 4.73478 14 5V6H10V5ZM17 19C17 19.2652 16.8946 19.5196 16.7071 19.7071C16.5196 19.8946 16.2652 20 16 20H8C7.73478 20 7.48043 19.8946 7.29289 19.7071C7.10536 19.5196 7 19.2652 7 19V8H17V19ZM14 18C14.2652 18 14.5196 17.8946 14.7071 17.7071C14.8946 17.5196 15 17.2652 15 17V11C15 10.7348 14.8946 10.4804 14.7071 10.2929C14.5196 10.1054 14.2652 10 14 10C13.7348 10 13.4804 10.1054 13.2929 10.2929C13.1054 10.4804 13 10.7348 13 11V17C13 17.2652 13.1054 17.5196 13.2929 17.7071C13.4804 17.8946 13.7348 18 14 18Z"/>
  </symbol>
</svg>
